<?xml version="1.0" ?><svg id="TwoTone" viewBox="0 0 64 64" xmlns="http://www.w3.org/2000/svg"><title/><desc/><g data-name="Stroke copy 3" id="Stroke_copy_3"><rect height="22" style="fill:#a8dba8" width="58" x="3" y="39"/><path d="M33,23H23a5,5,0,0,0-5,5v3h4v8H34V31h4V28A5,5,0,0,0,33,23Z" style="fill:#79bd9a"/><path d="M28,23a6,6,0,0,1-2-.35V26l2,2,2-2V22.65A6,6,0,0,1,28,23Z" style="fill:#cff09e"/><path d="M32.8,9H22v8a5.77,5.77,0,0,0,.08.94A3.47,3.47,0,0,0,25,14.87a4,4,0,0,0,2.88-2.8A3,3,0,0,0,30,13a4,4,0,0,0,3.21,3.92A3,3,0,0,0,33,18a3,3,0,0,0,.43,1.53A5.94,5.94,0,0,0,34,17V9a3.87,3.87,0,0,0-1.13.18A1.34,1.34,0,0,0,32.8,9Z" style="fill:#cff09e"/><path d="M25,17V9H22v8a6,6,0,0,0,6,6,5.71,5.71,0,0,0,1.5-.2A6,6,0,0,1,25,17Z" style="fill:#cff09e"/><path d="M37.27,13.29A4,4,0,0,0,38,11a4,4,0,0,0-4-4,3.87,3.87,0,0,0-1.13.18,3,3,0,0,0-5.58-.45A4,4,0,0,0,20,9c0,.11,0,.22,0,.33A3.49,3.49,0,1,0,25,12.87a4,4,0,0,0,2.88-2.8A3,3,0,0,0,30,11a4,4,0,0,0,3.21,3.92,3,3,0,1,0,4.06-1.63Z" style="fill:#79bd9a"/><path d="M38,32V31H34v8h4V38a2,2,0,0,1-2-2V34A2,2,0,0,1,38,32Z" style="fill:#cff09e"/><path d="M18,31v1a2,2,0,0,1,2,2v2a2,2,0,0,1-2,2v1h4V31Z" style="fill:#cff09e"/><circle cx="30" cy="17" r="1" style="fill:#4891d3"/><circle cx="26" cy="17" r="1" style="fill:#4891d3"/><path d="M46,22V20H43V34H61V31H55A9,9,0,0,1,46,22Z" style="fill:#cff09e"/><path d="M55,39H49l.8-8A2.21,2.21,0,0,1,52,29h0a2.21,2.21,0,0,1,2.2,2Z" style="fill:#79bd9a"/><path d="M6,35h6a2,2,0,0,1,2,2v0a2,2,0,0,1-2,2H6a0,0,0,0,1,0,0V35a0,0,0,0,1,0,0Z" style="fill:#79bd9a"/><path d="M4,31h8a2,2,0,0,1,2,2v0a2,2,0,0,1-2,2H4a0,0,0,0,1,0,0V31A0,0,0,0,1,4,31Z" style="fill:#a8dba8"/><path d="M6,27h6a2,2,0,0,1,2,2v0a2,2,0,0,1-2,2H6a0,0,0,0,1,0,0V27a0,0,0,0,1,0,0Z" style="fill:#79bd9a"/><rect height="4" style="fill:#cff09e" width="58" x="3" y="39"/></g><g data-name="Stroke Close copy 3" id="Stroke_Close_copy_3"><circle cx="30" cy="17" r="1" style="fill:#3b8686"/><circle cx="26" cy="17" r="1" style="fill:#3b8686"/><path d="M52,25a1,1,0,0,0-1-1H47a1,1,0,0,0,0,2h4A1,1,0,0,0,52,25Z" style="fill:#3b8686"/><path d="M55,26h2a1,1,0,0,0,0-2H55a1,1,0,0,0,0,2Z" style="fill:#3b8686"/><path d="M11,55H8V48a1,1,0,0,0-2,0v8a1,1,0,0,0,1,1h4a1,1,0,0,0,0-2Z" style="fill:#3b8686"/><path d="M15,47a1,1,0,0,0-1,1v8a1,1,0,0,0,2,0V48A1,1,0,0,0,15,47Z" style="fill:#3b8686"/><path d="M21,47H19a1,1,0,0,0-1,1v8a1,1,0,0,0,1,1h2a3,3,0,0,0,3-3,3,3,0,0,0-.78-2A3,3,0,0,0,24,50,3,3,0,0,0,21,47Zm-1,2h1a1,1,0,0,1,0,2H20Zm1,6H20V53h1a1,1,0,0,1,0,2Z" style="fill:#3b8686"/><path d="M29,47H27a1,1,0,0,0-1,1v8a1,1,0,0,0,2,0V53h1a1,1,0,0,1,1,1v2a1,1,0,0,0,2,0V54a3,3,0,0,0-.78-2A3,3,0,0,0,32,50,3,3,0,0,0,29,47Zm-1,4V49h1a1,1,0,0,1,0,2Z" style="fill:#3b8686"/><path d="M38.94,47.65a1,1,0,0,0-1.88,0l-3,8a1,1,0,1,0,1.88.7l.5-1.35h3.12l.5,1.35A1,1,0,0,0,41,57a1,1,0,0,0,.35-.06,1,1,0,0,0,.59-1.29ZM37.19,53,38,50.85,38.81,53Z" style="fill:#3b8686"/><path d="M47,47H45a1,1,0,0,0-1,1v8a1,1,0,0,0,2,0V53h1a1,1,0,0,1,1,1v2a1,1,0,0,0,2,0V54a3,3,0,0,0-.78-2A3,3,0,0,0,50,50,3,3,0,0,0,47,47Zm-1,4V49h1a1,1,0,0,1,0,2Z" style="fill:#3b8686"/><path d="M57.45,47.11a1,1,0,0,0-1.34.44L55,49.76l-1.11-2.21a1,1,0,0,0-1.78.9L54,52.24V56a1,1,0,0,0,2,0V52.24l1.89-3.79A1,1,0,0,0,57.45,47.11Z" style="fill:#3b8686"/><path d="M61,35a1,1,0,0,0,1-1V20a1,1,0,0,0-1-1H43a1,1,0,0,0-1,1V34a1,1,0,0,0,1,1h5.39l-.3,3H39V27.47A5.48,5.48,0,0,0,33.53,22h-.67a7,7,0,0,0,1.59-2.31A4,4,0,0,0,38.59,13,5,5,0,0,0,33.47,6a4,4,0,0,0-6.27-.87A5,5,0,0,0,19,8.77,4.47,4.47,0,0,0,21,17V17a7,7,0,0,0,2.11,5h-.64A5.47,5.47,0,0,0,17,27.47V38H14.82A3,3,0,0,0,15,37a3,3,0,0,0-.78-2,3,3,0,0,0,0-4A3,3,0,0,0,15,29a3,3,0,0,0-3-3H6a1,1,0,0,0-1,1v3H4a1,1,0,0,0-1,1v4a1,1,0,0,0,1,1H5v2H3a1,1,0,0,0-1,1V61a1,1,0,0,0,1,1H61a1,1,0,0,0,1-1V39a1,1,0,0,0-1-1H55.91l-.3-3ZM44,33V21H60V33H55.41l-.22-2.11a3.21,3.21,0,0,0-6.38,0L48.59,33Zm-7,5H35V32h2ZM28,26.59l-1-1V23.92a5.93,5.93,0,0,0,2,0v1.68ZM19,12.5a2.51,2.51,0,0,1,1.45-2.26,1,1,0,0,0,.58-1L21,9a3,3,0,0,1,5.47-1.7,1,1,0,0,0,.9.43,1,1,0,0,0,.83-.57A2,2,0,0,1,30,6a2,2,0,0,1,1.91,1.46,1,1,0,0,0,.48.6,1,1,0,0,0,.77.08A2.78,2.78,0,0,1,34,8a3,3,0,0,1,2.45,4.72,1,1,0,0,0-.15.83,1,1,0,0,0,.55.65A2,2,0,0,1,38,16a2,2,0,0,1-4,0,2,2,0,0,1,.14-.72,1,1,0,0,0,0-.84,1,1,0,0,0-.68-.5A3,3,0,0,1,31,11a1,1,0,0,0-1-1,2,2,0,0,1-1.44-.62,1,1,0,0,0-.72-.31,1.07,1.07,0,0,0-.25,0,1,1,0,0,0-.72.7,3,3,0,0,1-2.15,2.1,1,1,0,0,0-.75.86,2.49,2.49,0,0,1-5-.26ZM23,17v-.26a4.49,4.49,0,0,0,2.84-3.1,5,5,0,0,0,2.41-2,3.56,3.56,0,0,0,.83.29A5,5,0,0,0,32,15.59c0,.14,0,.27,0,.41a3.94,3.94,0,0,0,.79,2.36A5,5,0,0,1,23,17Zm-.53,7H25v2a1,1,0,0,0,.29.71L27,28.41V35a1,1,0,0,0,2,0V28.41l1.71-1.7A1,1,0,0,0,31,26V24h2.53A3.48,3.48,0,0,1,37,27.47V30H34a1,1,0,0,0-1,1v7H23V31a1,1,0,0,0-1-1H19V27.47A3.48,3.48,0,0,1,22.47,24ZM19,32h2v6H19ZM7,28h5a1,1,0,0,1,0,2H7ZM5,32h7a1,1,0,0,1,0,2H5Zm2,4h5a1,1,0,0,1,0,2H7ZM4,60V44H60V60ZM60,42H4V40H60Zm-9.9-4,.7-6.91a1.21,1.21,0,0,1,2.4,0L53.9,38Z" style="fill:#3b8686"/></g></svg>