<?xml version="1.0" ?><svg id="TwoTone" viewBox="0 0 64 64" xmlns="http://www.w3.org/2000/svg"><title/><desc/><g data-name="Stroke copy 3" id="Stroke_copy_3"><rect height="4" style="fill:#cff09e" width="4" x="3" y="54"/><rect height="4" style="fill:#cff09e" width="4" x="3" y="22"/><rect height="4" style="fill:#cff09e" width="4" x="3" y="38"/><path d="M31,22H27v4H61V24H33A2,2,0,0,1,31,22Z" style="fill:#cff09e"/><rect height="8" style="fill:#79bd9a" width="4" x="48" y="46"/><rect height="8" style="fill:#cff09e" width="4" x="44" y="46"/><rect height="10" style="fill:#a8dba8" transform="translate(-13.28 21.94) rotate(-20)" width="4" x="53.59" y="43.62"/><rect height="12" style="fill:#a8dba8" width="4" x="32" y="42"/><rect height="12" style="fill:#a8dba8" width="4" x="40" y="42"/><rect height="8" style="fill:#79bd9a" width="4" x="36" y="46"/><rect height="8" style="fill:#79bd9a" width="4" x="35" y="30"/><rect height="8" style="fill:#cff09e" width="4" x="56" y="30"/><rect height="10" style="fill:#a8dba8" transform="translate(-8.59 16.53) rotate(-20)" width="4" x="40.59" y="27.62"/><rect height="12" style="fill:#a8dba8" width="4" x="31" y="26"/><rect height="12" style="fill:#a8dba8" width="4" x="52" y="26"/><rect height="8" style="fill:#79bd9a" width="4" x="48" y="30"/><rect height="12" style="fill:#a8dba8" width="4" x="36" y="10"/><rect height="12" style="fill:#cff09e" width="4" x="40" y="10"/><rect height="8" style="fill:#79bd9a" width="4" x="32" y="14"/><rect height="8" style="fill:#79bd9a" width="4" x="55" y="14"/><rect height="10" style="fill:#a8dba8" transform="translate(94.04 49.82) rotate(-160)" width="4" x="49.41" y="11.62"/><path d="M31,38H27v4H61V40H33A2,2,0,0,1,31,38Z" style="fill:#cff09e"/><path d="M31,54H27v4H61V56H33A2,2,0,0,1,31,54Z" style="fill:#cff09e"/><rect height="2" style="fill:#cff09e" width="58" x="3" y="9"/><path d="M25,50V7a2,2,0,0,0-2,2V59a2,2,0,0,0,4,0V52A2,2,0,0,1,25,50Z" style="fill:#cff09e"/><path d="M9,50V7A2,2,0,0,0,7,9V59a2,2,0,0,0,4,0V52A2,2,0,0,1,9,50Z" style="fill:#cff09e"/></g><g data-name="Stroke Close copy 3" id="Stroke_Close_copy_3"><path d="M61,23a1,1,0,0,0,0-2H60V14a1,1,0,0,0-1-1H55.92l0-.06a1,1,0,0,0-.6-1.28L53.52,11H61a1,1,0,0,0,0-2H28a3,3,0,0,0-6,0H12A3,3,0,0,0,6,9H3a1,1,0,0,0,0,2H6V21H3a1,1,0,0,0,0,2H6v2H3a1,1,0,0,0,0,2H6V37H3a1,1,0,0,0,0,2H6v2H3a1,1,0,0,0,0,2H6V53H3a1,1,0,0,0,0,2H6v2H3a1,1,0,0,0,0,2H6a3,3,0,0,0,6,0V57H22v2a3,3,0,0,0,6,0H61a1,1,0,0,0,0-2H28V55H61a1,1,0,0,0,0-2h-.9a1,1,0,0,0,0-.71L56.74,43H61a1,1,0,0,0,0-2H28V39H61a1,1,0,0,0,0-2V30a1,1,0,0,0-1-1H57V27h4a1,1,0,0,0,0-2H28V23ZM35,17H33V15h2Zm-2,2h2v2H33Zm4-4h2v6H37Zm17,6H53l1-2.73Zm2,0V19h2v2Zm2-6v2H56V15Zm-7,5.72L49.1,20l2.74-7.51,1.88.68Zm-4.1-.43a1,1,0,0,0,0,.71H45V11h5.26ZM43,21H41V11h2ZM39,11v2H37V11Zm-4,0v2H32a1,1,0,0,0-1,1v7H28V11ZM12,33H22v6H12Zm10-2H12V25H22Zm0-8H12V17H22ZM12,41H22v6H12ZM22,11v4H12V11ZM10,59a1,1,0,0,1-2,0V9a1,1,0,0,1,2,0Zm2-4V49H22v6Zm14,4a1,1,0,0,1-2,0V9a1,1,0,0,1,2,0Zm7-10h2v4H33Zm6-4H37V43h2Zm-2,2h2v6H37Zm4,4h2v2H41Zm4-4h2v6H45Zm4,0h2v2H49Zm0,6V51h2v2Zm4,0V50.27L54,53Zm3-.28L53.28,45.2l1.88-.68L57.9,52Zm-4.36-9.06a1,1,0,0,0-.6,1.28l0,.06H45V43h8.48ZM43,43v6H41V43Zm-8,0v4H33V43Zm-4,0V53H28V43Zm1-10h2v4H32Zm9,4H40V34.27Zm-.71-7.8,1.88-.68L44.9,36,43,36.72ZM51,33H49V31h2Zm0-4H48a1,1,0,0,0-1,1v6l-3.26-9H51ZM38.66,27.66a1,1,0,0,0-.6,1.28l0,.06H36V27h4.48ZM36,37V31h2v6Zm13-2h2v2H49Zm4,0h2v2H53Zm6-4v6H57V31Zm-4-4v6H53V27ZM34,27v4H32V27Zm-4,0V37H28V27Z" style="fill:#3b8686"/></g></svg>