<?xml version="1.0" ?><svg viewBox="0 0 1000 1000" xmlns="http://www.w3.org/2000/svg"><defs><style>.cls-1{fill:none;}.cls-1,.cls-2{stroke:#000;stroke-miterlimit:10;}</style></defs><g data-name="Layer 10" id="Layer_10"><path d="M365,437a.43.43,0,0,0,0,.85A.43.43,0,0,0,365,437Z"/><path d="M535.66,961.68c8.65-.38,17.31,0,26,.21,4.34.09,8.69.16,13,.11l3.28,0a1.88,1.88,0,0,0,0-.43,2.35,2.35,0,0,0,0-.26,55.63,55.63,0,0,0-.91-7.19,23.26,23.26,0,0,0-4-9.36c-3-3.83-7.77-6.34-12.3-5-.06,0-2.73-4.87-3-5.32a39.25,39.25,0,0,0-3.83-4.92,26.78,26.78,0,0,0-5.8-5,9.43,9.43,0,0,0-7.4-1.24s-1-3.14-.73-3.43c.56-.67,2.83,0,3.55,0l4.76.37c2.55.2-.82-9.38-1.15-10.68l-3.75-14.6-7.5-29.19q-3.58-14-7.19-28-10.43-40.61-20.88-81.19-10.4-40.39-20.8-80.79t-20.85-80.78c-4.49-17.32-8.92-34.67-13.45-52,.66-.55,1.3-1.13,1.92-1.73l0,.11c.51-.57,1-1.13,1.59-1.64l0-.1c6.77-7.44,10.73-17.78,12.16-28.25a106.41,106.41,0,0,0,.21-24c-.69-7.73-1.79-15.43-3.14-23A291.24,291.24,0,0,0,453.94,420q-1.68-4.87-3.52-9.68c.55,1.43,3,1.2,4.11,1.21,7.55.08,15.36-.65,20.29-8a21.87,21.87,0,0,0,2.58-17.69c5.06-.57,9.72-4.85,10.82-10.47a15.9,15.9,0,0,0-2.73-12.1,12.18,12.18,0,0,0,7-6.19c2.66-5.26,1.27-11.6-1.87-16.19-7.27-10.63-20.36-11.55-31.27-9.82-11.54,1.83-22.66,6.72-34.44,6.54a27,27,0,0,1-16.32-5.28c-4.91-3.78-8.44-9.29-12.7-13.87s-9.86-8.95-16.07-8.6c-5,.29-10.26,3.61-11.56,9.34a8.4,8.4,0,0,0-5.57-1.15,10,10,0,0,0-5.63,2.6,11.17,11.17,0,0,0-3.39,7,31.3,31.3,0,0,0,.09,4.22c0,1.83-.47,1.68-1.83,2.81A21.23,21.23,0,0,0,344.47,349a19.61,19.61,0,0,0,4.14,14.26c2.95,3.51,7.39,5.69,11.73,5.2s9.33-3.66,10.8-8.52c1.07.94,2.45,1.31,2.18,2.72-.68,3.65-4.44,4.18-5.82,7.08-1.12.05-2.24-.13-3.36-.08a23.94,23.94,0,0,0-4.66.95,23,23,0,0,1-4.14.45,74.27,74.27,0,0,1-8.7,0,75.11,75.11,0,0,1-17.15-3,76.48,76.48,0,0,1-26.13-13.73,85.3,85.3,0,0,1-20.2-23.76c-5.8-10-9.56-21.32-12-32.92a180.77,180.77,0,0,1-2.95-20.11q-.48-5.15-.73-10.31c-.1-2.08-.35-4.14-.41-6.22-.05-1.55.76-3.5.13-5-.35-.86-1.19-.95-1.5-1.7s.21-2.22.27-3.11l.39-5.45q.39-5.3.76-10.59.74-10.6,1.44-21.2c.2-3,.57-6,.56-9,0-1.94-.39-4.26-2.09-5.23-1.85-1.05-3.88.36-4.73,2.26-1.09,2.41-.13,5.07,0,7.59a5.33,5.33,0,0,1-.66,3.32,2.51,2.51,0,0,1-3.25.54c-2.2-1.1-3.1-4.13-4-6.39l-3.56-8.85c-1-2.37-1.82-5.26-4.15-6.34a3.29,3.29,0,0,0-4.64,1.94c-.8,2.22.12,4.68.77,6.79a146,146,0,0,1,6.62,41.87c.06,4.13-.06,8.27-.35,12.39a36,36,0,0,1-.27,5.16,11.46,11.46,0,0,1-2.28,3.76c-2.06,2.78-2.92,6.4-3.54,9.87-.65,3.69-1.28,7.41-1.88,11.11a125.84,125.84,0,0,0-1.61,25.36A134.87,134.87,0,0,0,246.81,349,121.53,121.53,0,0,0,265,383a154,154,0,0,0,27.64,27.32c5.74,4.48,11.69,8.61,17.73,12.58q4.47,2.93,9,5.77c10.37,6.55,9.49,14.19,8.23,26.59-1.16,11.47-4.81,21.12-9.1,31.49a2.31,2.31,0,0,0,.15,2.55c3.07-.8,6.06-2.7,9.42-2.8-1.47,5.1-2.66,14-5.63,18.15l-.6.83a2.52,2.52,0,0,0-2.34.88,3.84,3.84,0,0,0-.86,2c-.51,3.75.95,8.06,1.37,11.8l1.65,14.73q1.65,14.6,3.34,29.17,3.44,30.13,6.89,60.28,2.68,23.35,5.39,46.71,9.45,81.51,19,163c.86,4.84,1.15,9.89,1.73,14.78l1.77,15.08q1.76,15.08,3.53,30.16,1,8.15,1.91,16.28.48,4.08.95,8.14c.22,1.87,0,5.46,1,7a2.84,2.84,0,0,0,2.21,1.24c1.56.12,16.81-.91,16.84-.44l1.08,14c-4.45,2.32-9.05,4.8-12.12,9.24a16.68,16.68,0,0,0-2.77,12.15c4.29-.34,8.67.22,13,.33,3.07.09,6.14.15,9.21.25,4.71-.28,9.45-.18,14.18-.14,5.62,0,11.26-.25,16.88-.06,1.11-3.15.68-7.45.35-10.5-.47-4.27-2.1-8.24-2.72-12.43-.18-1.16-1.85-13.41-2.24-13.4q8.52-.15,17-.28c.9,0,1.36-.89,1.23-1.8Q428.87,852.81,418.44,782q-10.38-70.44-20.75-140.87c-2.6-17.6-5.41-35.17-7.93-52.78,4.48,16.2,8,33.23,11.93,49.73q8.93,35.25,19.16,70.08t21.43,68.92q11.28,34.24,23.71,68t25.92,67l1.9,4.65c.37.89,1,3.61,1.84,4a2.11,2.11,0,0,0,1.09.09c2.17-.22,2.41-.39,3,2,.46,2,.92,4.09,1.39,6.13s.93,4.09,1.39,6.13c.42,1.85,1.39,4.24,1.39,6.13a1.47,1.47,0,0,0,.12.28,1,1,0,0,0,0,.17q1.11,5,2.24,10c.49,2.2.94,4.41,1.45,6.6a11.07,11.07,0,0,0,1.08,3.55,55.41,55.41,0,0,1,13.92.18C527,961.68,531.34,961.87,535.66,961.68ZM410.57,373.73c-2.89.12-5.77.43-8.57.82l-1.59.25a1,1,0,0,0,.36-1.63,11.41,11.41,0,0,0-7.14-3.32c-.78-.11-1.56-.18-2.35-.22a3.3,3.3,0,0,0-1.41-2A42.65,42.65,0,0,1,410.57,373.73Zm-40-4.34a15.9,15.9,0,0,0,4.9-6.41,41.23,41.23,0,0,0,12.51,4.1.64.64,0,0,0,.08.14c0,.08,0,.17.07.26a8.05,8.05,0,0,0,.63,1.44c.14.24.29.45.42.64-1.71,0-3.43,0-5.14,0-4.63,0-9.27.06-13.9.18ZM247,208.06q-1-4.16-2.33-8.24c-.43-1.37-2-5.29,0-6.06,2.36-.91,3.67,3.43,4.37,5.11q1.77,4.29,3.56,8.58c1.52,3.67,3.85,9.65,8.5,8.13,1.76-.58,2.71-2.38,2.93-4.32.28-2.55-1-5.23-.32-7.71.25-1,1.1-2.24,2.13-2.06s1.2,1.38,1.29,2.25a18.74,18.74,0,0,1-.08,3.09l-.35,5c-1,14.19-2.2,28.41-2.74,42.63,0-.43-5.67.38-6.24.56a24.42,24.42,0,0,0-3.65,1.47c-1,.49-2.12,1.52-3.14,1.72-.54-5.37.63-11.11.53-16.54a155.18,155.18,0,0,0-1.24-16.7A146,146,0,0,0,247,208.06ZM321.21,486a86.65,86.65,0,0,0,8.72-40.61,80.14,80.14,0,0,0-1-10.15l.85.2c15.57,9.31,26.24,27.92,27.19,47.65.05,1.08.07,2.17.09,3.26a11.11,11.11,0,0,1-2.76,2.36,11.81,11.81,0,0,1-7.67,1.88c-3-.32-5.42-2.19-7.95-3.87a14.66,14.66,0,0,0-9.09-2.75A28.24,28.24,0,0,0,321.21,486ZM323.33,506a88.63,88.63,0,0,0,5.5-19.63.41.41,0,0,0,0-.11l.8-.08a11.87,11.87,0,0,1,5.16.82,24.68,24.68,0,0,1,4.41,2.67c2.56,1.76,5.17,3.1,8.23,3.22a13.67,13.67,0,0,0,8-2.24,13.52,13.52,0,0,0,1.77-1.37,32.54,32.54,0,0,0,1.78,11.23,14.55,14.55,0,0,0,3.54,5.38A107.34,107.34,0,0,1,323.33,506Zm96.81,427.86q.36,3,.73,5.91c-2.51-.09-5.06.05-7.57.07l-8.51.07c-5.12,0-10.25.11-15.38.18-.22-2.08-.46-4.16-.69-6.23,5.1.06,10.2.12,15.3.14,2.67,0,5.35,0,8,0l4,0c1.27,0,2.81.29,4-.16Zm-.94-8.17q.35,3.21.73,6.42a12.53,12.53,0,0,0-3.67-.14H404c-5.17,0-10.34,0-15.5,0-.22-1.93-.43-3.85-.65-5.78Zm30.41-394.56q-1.78-6.76-3.61-13.54c-.61-2.25-1.21-4.51-1.81-6.76-.81-3-1.34-2.89.86-4,1.81-.93.72-4,.51-5.66-.29-2.44-.61-4.87-.94-7.3q-1-7.31-2.15-14.56-2.34-14.52-5.43-28.87Q435.15,441.71,433,433c-2-8-1.6-15.7-1.26-24a.77.77,0,1,0-1.53,0l-.37,8.93-.11,2.59c-.71-2.57-1.42-5.15-2.16-7.71a1.43,1.43,0,1,0-2.73.84,603.89,603.89,0,0,1,16,71.4q.93,5.73,1.74,11.49.42,3,.81,5.91c.17,1.29.44,1.46-.55,1.83a10.45,10.45,0,0,1-3.35.11c-1.45,0-2.89.11-4.33.16l-8.66.32-17.3.62c-11.78.44-23.58,1.13-35.37,1.27a15.28,15.28,0,0,1-7.53-1.34,9.68,9.68,0,0,1-4.75-4.54,22.08,22.08,0,0,1-2.12-8.55l0-.4c-.53-4.27-.43-8.59-.57-12.89a62.65,62.65,0,0,0-7.65-23.62c-7.76-13.75-21.74-22.58-34.59-31.23-6.17-4.15-12.29-8.39-18.25-12.9a170.68,170.68,0,0,1-28-25.91,119.63,119.63,0,0,1-19.47-32.61,131.29,131.29,0,0,1-8.77-37.76,140.18,140.18,0,0,1,.12-24.5c.46-4.84,1-9.67,1.94-14.42.84-4.39,1.75-9,4.28-12.62a16,16,0,0,1,8.09-6.1,18,18,0,0,1,4.93-.83c1.06,0,3.82-.43,4.43.84.3.63,0,1.46-.09,2.13-.07,1.12,0,2.3.07,3.43q.08,3.33.21,6.64c.2,4.43.5,8.85.94,13.26a151.85,151.85,0,0,0,4.7,25.91A103,103,0,0,0,279.64,329c10.51,20,28,35.09,48,41.26a70.69,70.69,0,0,0,18.54,3.1c6.16.19,12.14-1.08,18.25-1.55s12.24-.3,18.32-.28c3.13,0,6.28-.08,9.39.16a10.84,10.84,0,0,1,7.67,3.38,2.64,2.64,0,0,0-1.63-.18c-.69.22-1.25,1.38-.4,1.83s2.36-.15,3.23-.28c1.83-.29,3.66-.61,5.51-.78a59,59,0,0,1,8.82-.23c5.72.33,11.45,1.86,16.21,5.56s8.21,9.63,10.82,15.48c2.89,6.49,5.48,13.18,7.84,19.93a307.58,307.58,0,0,1,11.52,42.47q2.14,11,3.53,22.09a135.23,135.23,0,0,1,1.15,23,66.14,66.14,0,0,1-3.74,19.38,47,47,0,0,1-4.22,8.7,40,40,0,0,1-3.77,5,12.56,12.56,0,0,1-2.08,2.32C451.22,540.17,449.87,532.15,449.61,531.16Zm51.64,391.1c-.18-2,1-1.72,2.53-1.75l11.81-.25,13.8-.3,6.77-.14c1.41,0,1.63-.36,2.11,1a6.22,6.22,0,0,1,.23,4.6c-.77,1.69-2.19,1.15-3.73,1.18-1.33,0-2.65.06-4,.1q-4,.13-7.94.33c-5.29.26-10.58.59-15.88.85l-1.1,0c-.28,0-3.34.13-3.34.15A47.79,47.79,0,0,1,501.25,922.26Zm4.53,18.43v0c-.49-1.95-1-3.89-1.48-5.85-.26-1.12-1.39-3-.84-4.11.39-.77,1.32-.88,2.12-.9l29.59-.93a4.9,4.9,0,0,0,.77-.07l1.45-.08h.07a8.56,8.56,0,0,0,0,1.52,14.3,14.3,0,0,0,1.61,4.89c.42.85,2.72,3.7,2.06,4.7-.31.47-2.7.24-3.23.27-3.29.18-6.52-.19-9.82-.1-2.54.07-5.09.14-7.63.23Z"/><path d="M418.32,936.27l-7.2.21c-1,0-1,1.58,0,1.55l7.2-.16A.8.8,0,0,0,418.32,936.27Z"/><path d="M514.73,932.42a4,4,0,0,0-2-.19h-5.82a.9.9,0,0,0,0,1.79h6.69a2,2,0,0,0,1.13-.19A.81.81,0,0,0,514.73,932.42Z"/><path d="M521.83,935.81c-.48-.45-.94-.38-1.55-.36l-1.8.06-3.33.12-6.93.25c-1.12,0-1.12,1.77,0,1.74l6.93-.19,3.33-.1,1.8-.05c.59,0,1.12,0,1.55-.43A.76.76,0,0,0,521.83,935.81Z"/><path d="M329.26,497.27a1.2,1.2,0,0,0,0,2.4A1.2,1.2,0,0,0,329.26,497.27Z"/><rect class="cls-1" height="283" width="197" x="610.5" y="666.5"/><rect class="cls-1" height="283" width="112" x="817.5" y="666.5"/><rect class="cls-2" height="220" width="8" x="789.5" y="705.5"/><rect class="cls-2" height="220" width="8" x="829.5" y="705.5"/><path d="M402.83,375.07a9.27,9.27,0,0,0-1.51-1.42l-1.61-1.38c-.73-.62-1.78.41-1.06,1.06l.36.33.05.07,0,0a.63.63,0,0,0,.13.2,15.68,15.68,0,0,0,1.75,1.61.7.7,0,0,0,.2.08,4.7,4.7,0,0,0,.64.46C402.41,376.44,403.31,375.7,402.83,375.07Z"/><path d="M392.05,369.49c-.86-1.34-1.79-2.6-2.77-3.85-.58-.74-1.82.22-1.3,1,.89,1.32,1.8,2.59,2.8,3.83C391.36,371.18,392.54,370.25,392.05,369.49Z"/></g><g data-name="Layer 11" id="Layer_11"><path d="M517.45,121.65c-4.6.15-9.19.32-13.79.48a1,1,0,0,0,0,2.07c4.6-.11,9.19-.21,13.79-.34A1.11,1.11,0,0,0,517.45,121.65Z"/><path d="M517.7,125.12c-4.75-.12-9.54.22-14.29.41a1.07,1.07,0,0,0,0,2.14c4.75,0,9.55.08,14.29-.26A1.15,1.15,0,0,0,517.7,125.12Z"/><path d="M517.07,119.22a3.71,3.71,0,0,0-1.73-2.12,2.7,2.7,0,0,0-1.31-.35h0c0-.07,0-.13,0-.2a3.79,3.79,0,0,0-.78-2.19,3.57,3.57,0,0,0-2.32-1.35c-.18-.89-1.65-.82-1.58.11a4.37,4.37,0,0,0-1.5.87,3.72,3.72,0,0,0-1,2.41c-.27.22-.45.48-.84.55a3.34,3.34,0,0,0-1.62.55,3.19,3.19,0,0,0-1.13,1.8.58.58,0,0,0,.18.57.85.85,0,0,0,.53.12c1.8,0,3.6,0,5.4,0a2.86,2.86,0,0,0,1.09.17,3.72,3.72,0,0,0,.93-.17h4.08a11.42,11.42,0,0,0,1.17,0C517.11,120,517.2,119.63,517.07,119.22Z"/><path d="M519.72,152.3a9.86,9.86,0,0,1-3.53,7.43c-2.22,1.77-4.55,1.8-7.18,2.25-1,.17-.8,1.56,0,1.84,3,1.08,6.79-.5,9-2.47a11.17,11.17,0,0,0,3.72-9A1,1,0,0,0,519.72,152.3Z"/><path d="M526.65,150.12c-.43-3.06-2.16-5.17-3.68-7.76a16.44,16.44,0,0,1-1.8-4.43c-.72-2.94-.22-6.61-3.34-8.3-1.51-.82-3.16-.46-4.8-.39l-6.07.27c-2.07.08-4.47.14-5.84,1.94a6.65,6.65,0,0,0-1.15,3.68c0,.64-.05,1.32,0,2a5.35,5.35,0,0,1-.26,2.69c-.52,1.17-1.37,2.19-2,3.32a28.15,28.15,0,0,0-1.87,4.15,16.79,16.79,0,0,0-.77,8.85,17.16,17.16,0,0,0,.74,2.51,16.07,16.07,0,0,0,14,10.18,15.89,15.89,0,0,0,15.34-9.2A17.81,17.81,0,0,0,526.65,150.12Zm-12.23,15.35A13.73,13.73,0,0,1,498.68,159a13.54,13.54,0,0,1-.94-10.26,34.35,34.35,0,0,1,1.92-5c.66-1.49,1.68-2.79,2.34-4.28.52-1.18.1-2.72,0-3.95s0-3.08,1.27-3.6a9.43,9.43,0,0,1,2.91-.22l3.48-.14,3.48-.14a16.69,16.69,0,0,1,3.38-.13,2.4,2.4,0,0,1,1.12.42c.7.57.68,1.65.75,2.45a25.52,25.52,0,0,0,1.2,6.94c.91,2.39,2.9,4.18,3.75,6.6A13.64,13.64,0,0,1,514.42,165.47Z"/><path d="M528.45,130.45l-2.78,3.28c-.8.94-2,1.86-2,3.16a1,1,0,0,0,1.21.92c1.22-.32,1.9-1.74,2.64-2.69l2.62-3.4C530.82,130.79,529.22,129.54,528.45,130.45Z"/><path d="M538.89,149.92a35.84,35.84,0,0,0-7.32.27c-1.5.2-1.55,2.57,0,2.4a51.07,51.07,0,0,1,7.32-.2C540.5,152.45,540.46,150,538.89,149.92Z"/><path d="M531.2,173.61c-1.79-1.7-3.68-3.31-5.53-4.94-1.11-1-2.73.6-1.64,1.64,1.79,1.7,3.55,3.44,5.39,5.08C530.62,176.45,532.38,174.73,531.2,173.61Z"/><path d="M511.14,176.27c-.11-1.27-2.06-1.32-2,0,.07,2.58.11,5.18.33,7.75.13,1.42,2.29,1.47,2.25,0C511.63,181.43,511.36,178.85,511.14,176.27Z"/><path d="M496.15,170.57a1.16,1.16,0,0,0-.49-.49,1.4,1.4,0,0,0-1.66.21c-1.59,1.78-3.14,3.58-4.65,5.44-1,1.19.61,2.87,1.73,1.72,1.66-1.7,3.27-3.44,4.86-5.22A1.41,1.41,0,0,0,496.15,170.57Z"/><path d="M489.85,152.64a10.57,10.57,0,0,0-3.85-.16l-4.21.1a1.07,1.07,0,0,0,0,2.14l4.21-.09a10.54,10.54,0,0,0,3.85-.32A.88.88,0,0,0,489.85,152.64Z"/><path d="M496,136.42a15.63,15.63,0,0,0-2.65-2.28L490.64,132c-1.19-.94-2.89.68-1.7,1.7l2.81,2.41a16.41,16.41,0,0,0,2.84,2.23A1.2,1.2,0,0,0,496,136.42Z"/><path d="M511.15,46.2a3.87,3.87,0,0,1-1-.1.83.83,0,0,1-.15,0c-.09,9.74-.14,19.45-.11,29.19,0,2.18,1.39,2.24,1.42,0,.16-9.72.24-19.41.27-29.12A3.56,3.56,0,0,1,511.15,46.2Z"/><path d="M511,80.3a.81.81,0,0,0-1.61,0c.05,3.58.08,7.15.24,10.72a.85.85,0,0,0,1.69,0C511.28,87.45,511.12,83.87,511,80.3Z"/><path d="M511,96a.75.75,0,0,0-1.5,0c-.05,4.51-.11,9,.14,13.53a.79.79,0,0,0,1.58,0C511.39,105.07,511.21,100.55,511,96Z"/><path class="cls-1" d="M605,565V961.55c.31,0,.61,0,.92.05a2,2,0,0,1,.42,0,1.56,1.56,0,0,1,.66-.11c1.45.14,2.91.26,4.37.39a1.52,1.52,0,0,1,.82-.14l2,.26H931V565Z"/><rect class="cls-1" height="87" width="197" x="610.5" y="571.5"/><rect class="cls-1" height="87" width="112" x="817.5" y="571.5"/><circle class="cls-2" cx="709.5" cy="610.5" r="9"/><circle class="cls-2" cx="909.5" cy="610.5" r="9"/><path d="M249.9,259.28a4.21,4.21,0,0,0,.16-.61l-83.31-.13-76.06-.12c-.92,0-.92,2.21,0,2.22l158.5.53C249.42,260.56,249.69,260,249.9,259.28Z"/><path d="M250.35,245.62H90.62v7.87H250C250.06,250.86,250.26,248.24,250.35,245.62Z"/><path d="M443,245.62H265a64.88,64.88,0,0,1,.09,7.38,1.33,1.33,0,0,1-.09.49H441l-4.09,5.33a1.37,1.37,0,0,0-.13.2q-85.39-.21-170.79-.33a8.53,8.53,0,0,1,.33,2.48v.06l96.52.33,74.37.21c1.82-2.7,3.72-5.26,5.62-7.83a1.37,1.37,0,0,0-.13-.45H443Z"/><rect class="cls-2" height="66.93" width="11.81" x="116.9" y="178.04"/><rect class="cls-2" height="66.93" width="11.81" x="131.34" y="178.04"/><rect class="cls-2" height="66.93" width="11.81" x="145.77" y="178.04"/><rect class="cls-2" height="66.93" width="11.81" x="160.21" y="178.04"/><rect class="cls-1" height="66.93" width="11.81" x="175.95" y="178.04"/><rect class="cls-1" height="66.93" width="11.81" x="214.01" y="178.04"/><rect class="cls-1" height="66.93" transform="translate(28.75 -24.08) rotate(7.36)" width="14.43" x="194.33" y="178.04"/><path class="cls-1" d="M244.1,200.26a24.54,24.54,0,0,1-.84-3.3,1.59,1.59,0,0,1-.07-.38,19.91,19.91,0,0,1-1.5-2.28,1.64,1.64,0,0,1-.16-1.21,1.56,1.56,0,0,1,2.49-.8,1.67,1.67,0,0,1,.62-.24c.06-.05.1-.11.16-.15a1.6,1.6,0,0,1,1.21-.16.94.94,0,0,1,.15.06V178.69H230.41v66.93h15.75v-36c-.19-1.31-.4-2.61-.61-3.92C245.06,203.92,244.64,202.07,244.1,200.26Z"/><path class="cls-1" d="M250.92,202a1,1,0,0,1,.41.62c0,.18.08.36.11.53.77,2,1,4.28,1.86,6.16a12.69,12.69,0,0,0,2.56,4.29,7.34,7.34,0,0,0,1.45,1V179.35h-6.56v22.38Z"/><path class="cls-1" d="M261.25,164.91v49.4L262,214a8.85,8.85,0,0,1,.42-1.32c.08-.2.16-.4.25-.6a.61.61,0,0,1,.05-.12s0,0,.06-.16l.17-.59c0-1.54,0-3.08,0-4.61,0-.25-.08-.51-.14-.76a1.66,1.66,0,0,1,.2-1.24c0-.22,0-.43,0-.65A1.48,1.48,0,0,1,263,203c.36-1.52,1.5-3.9,3.48-2.79,1.69.95,1.75,3.44,1.7,5.14,0,.41-.06.82-.1,1.22a13.19,13.19,0,0,1-.19,3.25c-.13.71-.33,1.41-.53,2.11,0,.24-.05.47-.09.7a1.38,1.38,0,0,1,.12,1.16,9.65,9.65,0,0,0-.37,2.08,1.8,1.8,0,0,1-.05,1.4c0,.05-.05.09-.07.14l0,.23c1.15,4.48-.39,8.92-.92,13.41-.3,2.58-.4,5.17-.75,7.75-.14,1-.28,2-.41,3a1.36,1.36,0,0,1,.1.36,22,22,0,0,1,.15,2.81h19.81V164.91Z"/><rect class="cls-1" height="81.36" width="17.06" x="290.78" y="164.26"/><rect class="cls-1" height="87.92" width="22.31" x="309.8" y="157.04"/><rect class="cls-1" height="87.92" width="22.31" x="334.74" y="157.04"/><rect class="cls-1" height="87.92" width="22.31" x="359.67" y="157.04"/><rect class="cls-1" height="87.92" width="22.31" x="387.23" y="157.04"/><line class="cls-1" x1="230.41" x2="246.16" y1="185.25" y2="185.25"/><path class="cls-1" d="M230.76,195.09H243"/><line class="cls-1" x1="230.5" x2="245.5" y1="205.5" y2="205.5"/><line class="cls-1" x1="229.76" x2="245.5" y1="217.4" y2="217.4"/><line class="cls-1" x1="229.76" x2="245.5" y1="227.9" y2="227.9"/><line class="cls-1" x1="229.76" x2="245.5" y1="238.4" y2="238.4"/><path class="cls-1" d="M266.5,229.32v14.33"/><path class="cls-1" d="M266.5,164.91v35.53"/><line class="cls-1" x1="280.93" x2="280.93" y1="164.91" y2="246.27"/><line class="cls-1" x1="266.5" x2="280.93" y1="172.79" y2="172.79"/><line class="cls-1" x1="266.5" x2="280.93" y1="185.91" y2="185.91"/><line class="cls-1" x1="266.5" x2="280.93" y1="197.72" y2="197.72"/><line class="cls-1" x1="266.5" x2="280.93" y1="222.65" y2="222.65"/><line class="cls-1" x1="266.5" x2="280.93" y1="234.46" y2="234.46"/><line class="cls-1" x1="267.5" x2="280.93" y1="210.5" y2="210.84"/><line class="cls-1" x1="203.51" x2="195.64" y1="178.04" y2="244.96"/><line class="cls-1" x1="210.07" x2="198.26" y1="179.35" y2="244.96"/><line class="cls-1" x1="203.51" x2="210.07" y1="178.04" y2="179.35"/><path class="cls-2" d="M243.29,194.49a3.08,3.08,0,0,1,.16-.38h0v0l.11-.14a1.46,1.46,0,0,1,.55-1.06,1.6,1.6,0,0,1,1.57-.17h.3V186H231.07v8.78h12.16A1,1,0,0,1,243.29,194.49Z"/><rect class="cls-2" height="11.81" width="14.43" x="231.07" y="205.59"/><rect class="cls-2" height="10.5" width="14.43" x="231.07" y="227.9"/><rect class="cls-2" height="6.56" width="11.81" x="267.81" y="164.91"/><rect class="cls-2" height="11" width="13" x="267.5" y="186.5"/><rect class="cls-2" height="11.66" width="12.69" x="267.81" y="210.84"/><path class="cls-2" d="M266.5,234.46v3.65a1.67,1.67,0,0,1,.61,1.69c-.23,1.17-.43,2.34-.61,3.52v4.27h14.44V234.46Z"/><rect class="cls-2" height="66.93" transform="translate(35.28 -28.82) rotate(8.93)" width="5.25" x="199.57" y="178.04"/><rect class="cls-2" height="6.56" width="14.43" x="313.74" y="162.29"/><rect class="cls-2" height="6.56" width="14.43" x="338.67" y="162.29"/><rect class="cls-2" height="6.56" width="14.43" x="363.61" y="162.29"/><rect class="cls-2" height="6.56" width="14.43" x="391.17" y="162.29"/></g><g id="zzzz"><path d="M289.42,690.06c-1.16-1.18-2.76-2-4-3l-3.81-3.19h0l1.7-1.34,2.85-2.23c3.35-2.63,6.36-4.36,7.14-8.89a36,36,0,0,0-.66-13.76,18.84,18.84,0,0,0-7.3-10.91,13.09,13.09,0,0,0-12.8-1c-4.79,2.06-8.6,6-12.08,9.74A96.94,96.94,0,0,0,249,670.64a.77.77,0,0,0-.1.34,17.71,17.71,0,0,0-4.34-2.14c-7.5-2.5-16.36-1.37-23.85.62A63.61,63.61,0,0,0,198.93,680a61.79,61.79,0,0,0-16.12,17.85,57,57,0,0,0-5.07,11.23c-1.88,5.72-3,11.64-4.92,17.36a51.82,51.82,0,0,1-2.95,7.2,31,31,0,0,1-5.27,7.25c-1.81,1.9-3.74,3.69-5.68,5.46l-.14.11-.79.66q-11.87-27.06-23.87-54.06c-1.9-4.27-3.7-8.6-5.74-12.81a30.21,30.21,0,0,0-6.11-9.06,13.93,13.93,0,0,0-9.14-3.94,16.27,16.27,0,0,0-9.85,3.32,21.39,21.39,0,0,0-7.68,12.16A37.75,37.75,0,0,0,94.54,690c-.17,3-.56,5.55,2.62,7.73a10.65,10.65,0,0,1,2.85,2.79c1.22,1.82,4.37,3.76,5.75,6a11.34,11.34,0,0,1-2,.65l-2.64.77c-1.29.37-2.61.86-3.92,1.13-1,.21-1.78.4-2,1.6s.32,3.2.47,4.57c.2,1.67.41,3.33.64,5q.69,5,1.6,9.94,1.84,9.88,4.55,19.59,2.6,9.3,6,18.37a228.47,228.47,0,0,0,12,26.68c4.45,8.44,9.29,17,15.12,24.55,3.07,4,6.73,7.77,11.37,9.94,4.35,2,9.37,2.78,14,1.14q3.74,11.25,7.33,22.55c4,12.56,7.92,25.16,11.51,37.84l-5.68,0c-4.9,0-9.91.36-14.76,0a4.15,4.15,0,0,0-2.12.33c-1.65.79-1.11,2.15-1,3.53.21,1.76.44,3.51.67,5.27.44,3.51.89,7,1.33,10.54q1.34,10.54,2.68,21.08.85,6.74,1.72,13.49l1.92,14.85a1.56,1.56,0,0,0,1.52,1.51h0a.8.8,0,0,0,.55.2q22.19-.3,44.35-.72a.47.47,0,0,0-.33.45.49.49,0,0,0,.67.46,7.62,7.62,0,0,1,2.29-.43,8.89,8.89,0,0,1,2.06-.07c.2,0,.22-.34,0-.33h-.2a.14.14,0,0,0-.11-.14h.21a.17.17,0,0,0,0,.12.25.25,0,0,0,.34,0,.75.75,0,0,0,.06-.13h.07a1.88,1.88,0,0,0,.18.24.89.89,0,0,0,1.08.14,2.63,2.63,0,0,0,1.15-2.12l.54-3.69q.49-3.31,1-6.64l2-13.52c1.31-9,2.71-17.94,3.85-26.94.36-2.86.73-5.72,1.09-8.59.18-1.46.37-2.93.55-4.4s.83-2.88-.42-4.06-3.95-.48-5.64-.48l-7.84,0-15.9,0c-.33-27.31,4.92-54.37,13.39-80.25.49-1.51,1-3,1.51-4.5,8.31,2.93,17.14-1.26,23-7.18a78.59,78.59,0,0,0,8.6-10.89q4.26-6.15,8.32-12.45a443,443,0,0,0,29.14-52.79,121.6,121.6,0,0,0,6.72-17.08,65.25,65.25,0,0,0,2-9.07c.23-1.51.84-3,.37-4.47A5.13,5.13,0,0,0,289.42,690.06ZM99.64,728.37c-1.09-5.67-2-11.39-2.67-17.12a1,1,0,0,0-.12-.36l4.8-1.34c1-.29,2.08-.61,3.14-.83.91-.2,1.91-.21,2.56-1,1.76-2-1.25-3.52-2.46-4.71L102,700.22l-5.76-5.64-.07,0c-.23-7.6.88-16.22,6.87-21.57a15.11,15.11,0,0,1,9.56-4,11.79,11.79,0,0,1,9,4.15,33,33,0,0,1,5.32,9.06q2.67,6.13,5.33,12.28l11.28,25.87q6.22,14.25,12.49,28.46c-6.13,5.16-12.47,10.92-13.74,19.14-.08.51-.14,1-.17,1.52q-2.67-7.14-5.4-14.25-7.29-18.94-15.15-37.66c-.56-1.35-2.79-.77-2.23.61q4.29,10.49,8.43,21l-1.37-.52-3.72-1.45-7.68-3c-5-2-10.09-3.88-15.13-5.81A.86.86,0,0,0,99.64,728.37Zm2.46,11.24c-.73-3-1.43-6.07-2-9.13,4.7,2,9.38,3.94,14.09,5.88l7.4,3,3.7,1.53a10.06,10.06,0,0,0,3.58,1.14h.05q1.95,5,3.87,9.93-15-6.27-30.14-12.38A.72.72,0,0,0,102.1,739.61ZM138,818.79a120.35,120.35,0,0,1-7.85-11.64q-3.69-6-7-12.16a233.24,233.24,0,0,1-20.67-53.57h0q15.17,6.75,30.42,13.29a1.39,1.39,0,0,0,.86.09Q138,765.58,142,776.41a16.67,16.67,0,0,0,1.62,5.43c.1.19.2.39.31.58a20.2,20.2,0,0,1,1.23,2.57q7.81,21.51,15,43.25C151.47,831.32,143.22,825.33,138,818.79Zm23.64-6.22c-.17,3.71-.48,7.54-.33,11.29l-.45-1.37Q155.15,805.3,149,788.26c1,.84,2,1.64,3,2.42,3.29,2.54,6.59,5.2,8.23,9.15S161.87,808.32,161.68,812.57Zm4.26,25.36a22,22,0,0,0,19.24,8.41c.06,13,.15,26.1,3.53,38.75.52,1.94,1.14,3.86,1.82,5.75l-8.52,0C176.82,873.16,171.55,855.5,165.94,837.93Zm33.45,7.32a226.9,226.9,0,0,0-4.11,45.18,1.14,1.14,0,0,1-2.21.4c-5.17-14.46-5.15-29.78-5.17-45a22.44,22.44,0,0,0,13.4-9.75Q200.27,840.67,199.39,845.25Zm1.77-16.55a19,19,0,0,1-13.27,14.24c0-1.73,0-3.45,0-5.17-.21-16.25-1.64-33.42-10.11-47.7-3.89-6.56-12.3-14.2-9.34-22.66,2-5.7,9-7.57,13.94-9.77a25,25,0,0,0,7.65-4.83,17.38,17.38,0,0,0,4.57-9.19c1.36-7.32-.07-14.83,1.49-22.14a44,44,0,0,1,25.83-31,40.35,40.35,0,0,1,4.91-1.63,1.25,1.25,0,0,0-.66-2.41C212.19,690,200.78,700.67,195.48,714a42.4,42.4,0,0,0-2.68,10.32,95.53,95.53,0,0,0-.39,11.35c0,3.73-.17,7.64-1.65,11.12a14.42,14.42,0,0,1-6.61,6.88c-5.46,3-12.36,4.23-16.45,9.35a12.69,12.69,0,0,0-2.54,9.54c.51,4.15,2.5,7.81,4.86,11.2a96.45,96.45,0,0,1,7,10.87,61.62,61.62,0,0,1,4.45,11.69,111.06,111.06,0,0,1,3.44,25.14c.16,4,.2,8.05.22,12.1a18,18,0,0,1-11.08-2.16,19.42,19.42,0,0,1-7.92-8.09c-1.94-3.79-2.23-8.15-2.15-12.34.15-8.11,2-17.12-2.45-24.49-2.05-3.41-5.24-5.84-8.34-8.23-4-3.09-7.9-6.9-8.75-12.17-.95-5.83,1.6-11.7,4.92-16.36a41,41,0,0,1,3.24-4c6.16-6.61,13.74-11.83,18.84-19.41a29.91,29.91,0,0,0,1.75-3,32.4,32.4,0,0,0,1.29-3.7c.44-1.69.54-3.91,1.39-5.59v0a.67.67,0,0,0-.06-.12c1.31-4.65,2.34-9.42,3.83-14a56.21,56.21,0,0,1,12-20.4c10.67-11.66,25.91-19.17,41.8-19.47,6.68-.13,17.47,1.26,17.88,9.94.21,4.64-2.68,8.62-5.94,11.61a107.34,107.34,0,0,1-11.61,8.73c-7.46,5.18-15.19,10.87-19.23,19.29A27.92,27.92,0,0,0,212,733c.21,5,1.23,9.91,1,14.91-.32,8-4.75,14.82-8.88,21.36s-8.34,13.38-9,21.28c-.73,8.83,3.16,17.16,5.22,25.55C201.37,820.2,202,824.52,201.16,828.7ZM231,706.26c-.14.3-.29.6-.43.89l-2.28,4.44q-2.24,4.33-4.44,8.66l-8.27,16.27a51.65,51.65,0,0,1-.3-5.56c.09-9.87,6.44-17.4,13.81-23.25C229.71,707.21,230.35,706.74,231,706.26Zm-26.47,117c-.25-6.36-2.56-12.67-4.29-18.74-1.22-4.31-2.24-8.75-2-13.26A18.8,18.8,0,0,0,209.86,806C207.92,811.7,206.12,817.47,204.52,823.29Zm63.33-78.85q-6.93,12.62-14.6,24.79-3.87,6.13-7.94,12.14c-2.56,3.78-5.1,7.61-7.95,11.18-5.58,7-14.45,13.87-23.83,10.77,8.38-23.78,19.32-46.61,31.05-68.9,1.3-2.48,2.63-5,4-7.43a101.09,101.09,0,0,1,15.68-3.36q4-.54,8-.73c1.42-.07,2.84-.12,4.27-.13.81,0,1.65,0,2.47,0Q273.71,733.78,267.85,744.44ZM281,718.67c-.34.73-.7,1.45-1,2.18a22.86,22.86,0,0,0-3.41-.05c-1.43,0-2.85.08-4.27.16q-4.15.24-8.28.83a98.67,98.67,0,0,0-14.33,3.13q2.67-4.95,5.36-9.87a.77.77,0,0,0,.3,0,106.72,106.72,0,0,1,28.84-3.6C283.15,713.88,282.08,716.3,281,718.67Zm3.87-9a.84.84,0,0,0-.44-.11A107.87,107.87,0,0,0,256,713.16q5.5-10,11.06-20a.74.74,0,0,0-1.27-.74c-14.11,24.34-28.16,48.75-40.08,74.26a386.66,386.66,0,0,0-15.28,37.51,29.79,29.79,0,0,1-4-2.36,16.5,16.5,0,0,1-3.39-3.59,19,19,0,0,1-3.53-9.25c-.41-5.74,2.61-10.46,5.52-15.14,3-4.87,6.38-9.61,8.65-14.92a31,31,0,0,0,2.64-12.64c0-2.45-.29-4.89-.55-7.33a.71.71,0,0,0,.43-.36q4.55-8.89,9.1-17.77,2.22-4.33,4.4-8.68l2.26-4.46c.58-1.15,1.27-2.3,1.79-3.5,2.66-1.89,5.36-3.73,8-5.68,3.74-2.79,7.48-5.79,9.91-9.85,2.33-3.91,3.18-8.88,1.21-13.11a11.15,11.15,0,0,0-3.14-3.92.74.74,0,0,0,.42-.3,110.74,110.74,0,0,1,9.33-12.43c3.17-3.67,6.58-7.46,10.67-10.12,3.83-2.5,8.53-3.75,12.81-1.57a15.53,15.53,0,0,1,7.4,9.46,28.05,28.05,0,0,1,1,8.79c-.08,3-.7,5.94-.73,8.91h0l-5.7,4.27-2.81,2.1-1.4,1.05a5.45,5.45,0,0,0-1.46,1.28,1,1,0,0,0,.52,1.44l4.44,3.8,2.2,1.89,1.13,1a4.64,4.64,0,0,0,1.36,1,.69.69,0,0,0,.4,0A69.4,69.4,0,0,1,284.84,709.64Z"/></g></svg>