<?xml version="1.0" ?><svg id="TwoTone" viewBox="0 0 64 64" xmlns="http://www.w3.org/2000/svg"><title/><desc/><g data-name="Stroke copy 3" id="Stroke_copy_3"><path d="M40,3H20v8a4,4,0,0,0,4,4V10H40v5a4,4,0,0,0,4-4V7A4,4,0,0,0,40,3Z" style="fill:#79bd9a"/><path d="M24,29H40a8,8,0,0,1,8,8v6a0,0,0,0,1,0,0H16a0,0,0,0,1,0,0V37A8,8,0,0,1,24,29Z" style="fill:#79bd9a"/><path d="M32,27a8,8,0,0,1-4-1.08V30a4,4,0,0,0,8,0V25.92A8,8,0,0,1,32,27Z" style="fill:#cff09e"/><path d="M40,16.38a4,4,0,1,0-.7,5.89A8,8,0,0,0,40,19Z" style="fill:#cff09e"/><path d="M29,19a4,4,0,0,0-4-4,4.09,4.09,0,0,0-1,.14V19a8,8,0,0,0,1.07,4A4,4,0,0,0,29,19Z" style="fill:#cff09e"/><path d="M27,19V16a4,4,0,0,1,4-4h9V10H24v9a8,8,0,0,0,8,8,7.48,7.48,0,0,0,1.5-.15A8,8,0,0,1,27,19Z" style="fill:#cff09e"/><circle cx="38" cy="17" r="4" style="fill:#a8dba8"/><circle cx="26" cy="17" r="4" style="fill:#a8dba8"/><polygon points="48 52 34 56 34 38 48 30 48 52" style="fill:#cff09e"/><path d="M16,30V42.14A4,4,0,0,1,19,46H17a4.09,4.09,0,0,1-1-.14V52l14,4V38Z" style="fill:#cff09e"/><rect height="23" style="fill:#79bd9a" width="4" x="30" y="38"/><polygon points="47 45 38 47 38 43 47 41 47 45" style="fill:#57b7eb"/><path d="M25,45h-.14l-3.5-.5a1,1,0,0,1,.28-2l3.5.5A1,1,0,0,1,25,45Z" style="fill:#4891d3"/><path d="M39,53a1,1,0,0,1-.24-2l4.57-1.14a1,1,0,0,1,1.21.72,1,1,0,0,1-.73,1.22L39.24,53A1,1,0,0,1,39,53Z" style="fill:#a1d51c"/><path d="M38,52.24a1,1,0,0,0,1.21.73l1.22-.3a7.83,7.83,0,0,1-1.35-1.73l-.35.09A1,1,0,0,0,38,52.24Z" style="fill:#7ab92d"/><path d="M49,41h2V34L34,38V61l17-4V44.45A4,4,0,0,1,49,41Z" style="fill:#a8dba8"/><path d="M13,34v8h2a4,4,0,0,1,4,4H17a4,4,0,0,1-4-4V57l17,4V38Z" style="fill:#a8dba8"/><path d="M53,45a4,4,0,0,1-4-4,4,4,0,0,0,0,8h2a4,4,0,0,0,4-4Z" style="fill:#cff09e"/><path d="M17,46a4,4,0,0,1-4-4,4,4,0,0,0,0,8h2a4,4,0,0,0,4-4Z" style="fill:#cff09e"/></g><g data-name="Stroke Close copy 3" id="Stroke_Close_copy_3"><path d="M56,45a5,5,0,0,0-4-4.9V34a1,1,0,0,0-.38-.78,1,1,0,0,0-.85-.19L49,33.44V30a1,1,0,0,0-.5-.86,1,1,0,0,0-1,0l-1.71,1A9,9,0,0,0,40,28H37V26.47a9,9,0,0,0,3.72-5.29A5,5,0,0,0,43,17a4.89,4.89,0,0,0-.35-1.8A5,5,0,0,0,45,11V7a5,5,0,0,0-5-5H20a1,1,0,0,0-1,1v8a5,5,0,0,0,2.35,4.2A4.89,4.89,0,0,0,21,17a5,5,0,0,0,2.28,4.18A9,9,0,0,0,27,26.47V28H24a9,9,0,0,0-5.79,2.11l-1.71-1a1,1,0,0,0-1,0A1,1,0,0,0,15,30v3.44L13.23,33a1,1,0,0,0-.85.19A1,1,0,0,0,12,34v7.1a5,5,0,0,0,0,9.8V57a1,1,0,0,0,.77,1l17,4A.91.91,0,0,0,30,62h4a.91.91,0,0,0,.23,0l17-4A1,1,0,0,0,52,57V49.9A5,5,0,0,0,56,45ZM47,33.91l-6.52,1.54L47,31.72ZM38,20a3,3,0,1,1,3-3A3,3,0,0,1,38,20Zm-4.66-4.77a3.14,3.14,0,0,0-2.68,0A5,5,0,0,0,26,12a5.47,5.47,0,0,0-1,.1V11H39v1.1a5.47,5.47,0,0,0-1-.1A5,5,0,0,0,33.34,15.23ZM21,11V4H40a3,3,0,0,1,3,3v4a3,3,0,0,1-1.42,2.52A5.37,5.37,0,0,0,41,13V10a1,1,0,0,0-1-1H24a1,1,0,0,0-1,1v3a5.37,5.37,0,0,0-.58.49A3,3,0,0,1,21,11Zm5,3a3,3,0,1,1-3,3A3,3,0,0,1,26,14Zm-.31,8A3,3,0,0,0,26,22a5,5,0,0,0,5-4.59,1.44,1.44,0,0,1,2.08,0A5,5,0,0,0,38,22a3,3,0,0,0,.31,0,7,7,0,0,1-12.62,0ZM32,28a8.8,8.8,0,0,0,3-.52V30a3,3,0,0,1-6,0V27.48A8.8,8.8,0,0,0,32,28Zm-8,2h3a5,5,0,0,0,10,0h3a7,7,0,0,1,3.9,1.19L33.73,37H30.27L20.1,31.19A7,7,0,0,1,24,30Zm-7,1.72,6.52,3.73L17,33.91ZM10,46a3,3,0,0,1,3-3h2a3,3,0,0,1,0,6H13A3,3,0,0,1,10,46Zm4,5h1a5,5,0,0,0,5-5,5.08,5.08,0,0,0-.33-1.75l5.19.74H25a1,1,0,0,0,.14-2l-7-1A.76.76,0,0,0,18,42a4.93,4.93,0,0,0-3-1H14V35.26l15,3.53v21L14,56.21ZM31,39h2V60H31Zm4,20.74v-21l15-3.53V40H49a4.87,4.87,0,0,0-1.39.22,1,1,0,0,0-.83-.2l-9,2A1,1,0,0,0,37,43v4a1,1,0,0,0,1,1l.22,0,6.07-1.35a5,5,0,0,0,2,2.53L38.76,51A1,1,0,0,0,39,53a1,1,0,0,0,.24,0l8-2A1,1,0,0,0,48,49.89,4.9,4.9,0,0,0,49,50h1v6.21Zm9-15.11-5,1.12v-2l5.67-1.26A5,5,0,0,0,44,44.63ZM51,48H49a3,3,0,0,1,0-6h2a3,3,0,0,1,0,6Z" style="fill:#3b8686"/><circle cx="38" cy="18" r="1" style="fill:#3b8686"/><circle cx="26" cy="18" r="1" style="fill:#3b8686"/></g></svg>